solid gh-assembler
  facet normal 0.0 -1.0 0.0
    outer loop
      vertex 0.0 0.0 0.0
      vertex 1666.6666259765625 0.0 0.0
      vertex 1666.6666259765625 0.0 500.0
    endloop
  endfacet
  facet normal 0.0 -1.0 0.0
    outer loop
      vertex 0.0 0.0 0.0
      vertex 1666.6666259765625 0.0 500.0
      vertex 0.0 0.0 500.0
    endloop
  endfacet
  facet normal 0.0 -1.0 0.0
    outer loop
      vertex 1666.6666259765625 0.0 0.0
      vertex 3333.333251953125 0.0 0.0
      vertex 3333.333251953125 0.0 500.0
    endloop
  endfacet
  facet normal 0.0 -1.0 0.0
    outer loop
      vertex 1666.6666259765625 0.0 0.0
      vertex 3333.333251953125 0.0 500.0
      vertex 1666.6666259765625 0.0 500.0
    endloop
  endfacet
  facet normal 0.0 -1.0 0.0
    outer loop
      vertex 5000.0 0.0 0.0
      vertex 5000.0 0.0 500.0
      vertex 3333.333251953125 0.0 500.0
    endloop
  endfacet
  facet normal 0.0 -1.0 0.0
    outer loop
      vertex 5000.0 0.0 0.0
      vertex 3333.333251953125 0.0 500.0
      vertex 3333.333251953125 0.0 0.0
    endloop
  endfacet
  facet normal 0.0 -1.0 0.0
    outer loop
      vertex 8333.3330078125 0.0 0.0
      vertex 8333.3330078125 0.0 500.0
      vertex 6666.66650390625 0.0 500.0
    endloop
  endfacet
  facet normal 0.0 -1.0 0.0
    outer loop
      vertex 8333.3330078125 0.0 0.0
      vertex 6666.66650390625 0.0 500.0
      vertex 6666.66650390625 0.0 0.0
    endloop
  endfacet
  facet normal 0.0 -1.0 0.0
    outer loop
      vertex 10000.0 0.0 0.0
      vertex 10000.0 0.0 500.0
      vertex 8333.3330078125 0.0 500.0
    endloop
  endfacet
  facet normal 0.0 -1.0 0.0
    outer loop
      vertex 10000.0 0.0 0.0
      vertex 8333.3330078125 0.0 500.0
      vertex 8333.3330078125 0.0 0.0
    endloop
  endfacet
  facet normal 0.0 -1.0 0.0
    outer loop
      vertex 6666.66650390625 0.0 0.0
      vertex 6666.66650390625 0.0 500.0
      vertex 5000.0 0.0 500.0
    endloop
  endfacet
  facet normal 0.0 -1.0 0.0
    outer loop
      vertex 6666.66650390625 0.0 0.0
      vertex 5000.0 0.0 500.0
      vertex 5000.0 0.0 0.0
    endloop
  endfacet
  facet normal 1.0 0.0 -0.0
    outer loop
      vertex 10000.0 1666.6666259765625 0.0
      vertex 10000.0 1666.6666259765625 500.0
      vertex 10000.0 0.0 500.0
    endloop
  endfacet
  facet normal 1.0 0.0 0.0
    outer loop
      vertex 10000.0 1666.6666259765625 0.0
      vertex 10000.0 0.0 500.0
      vertex 10000.0 0.0 0.0
    endloop
  endfacet
  facet normal 1.0 0.0 0.0
    outer loop
      vertex 10000.0 1666.6666259765625 500.0
      vertex 10000.0 1666.6666259765625 0.0
      vertex 10000.0 3333.333251953125 0.0
    endloop
  endfacet
  facet normal 1.0 -0.0 0.0
    outer loop
      vertex 10000.0 1666.6666259765625 500.0
      vertex 10000.0 3333.333251953125 0.0
      vertex 10000.0 3333.333251953125 500.0
    endloop
  endfacet
  facet normal 1.0 0.0 -0.0
    outer loop
      vertex 10000.0 5000.0 0.0
      vertex 10000.0 5000.0 500.0
      vertex 10000.0 3333.333251953125 500.0
    endloop
  endfacet
  facet normal 1.0 0.0 0.0
    outer loop
      vertex 10000.0 5000.0 0.0
      vertex 10000.0 3333.333251953125 500.0
      vertex 10000.0 3333.333251953125 0.0
    endloop
  endfacet
  facet normal 0.0 1.0 0.0
    outer loop
      vertex 8333.3330078125 5000.0 0.0
      vertex 8333.3330078125 5000.0 500.0
      vertex 10000.0 5000.0 500.0
    endloop
  endfacet
  facet normal 0.0 1.0 0.0
    outer loop
      vertex 8333.3330078125 5000.0 0.0
      vertex 10000.0 5000.0 500.0
      vertex 10000.0 5000.0 0.0
    endloop
  endfacet
  facet normal 0.0 1.0 0.0
    outer loop
      vertex 6666.66650390625 5000.0 0.0
      vertex 6666.66650390625 5000.0 500.0
      vertex 8333.3330078125 5000.0 500.0
    endloop
  endfacet
  facet normal 0.0 1.0 0.0
    outer loop
      vertex 6666.66650390625 5000.0 0.0
      vertex 8333.3330078125 5000.0 500.0
      vertex 8333.3330078125 5000.0 0.0
    endloop
  endfacet
  facet normal 0.0 1.0 0.0
    outer loop
      vertex 5000.0 5000.0 0.0
      vertex 5000.0 5000.0 500.0
      vertex 6666.66650390625 5000.0 500.0
    endloop
  endfacet
  facet normal 0.0 1.0 0.0
    outer loop
      vertex 5000.0 5000.0 0.0
      vertex 6666.66650390625 5000.0 500.0
      vertex 6666.66650390625 5000.0 0.0
    endloop
  endfacet
  facet normal 0.0 1.0 0.0
    outer loop
      vertex 1666.6666259765625 5000.0 0.0
      vertex 1666.6666259765625 5000.0 500.0
      vertex 3333.333251953125 5000.0 500.0
    endloop
  endfacet
  facet normal 0.0 1.0 0.0
    outer loop
      vertex 1666.6666259765625 5000.0 0.0
      vertex 3333.333251953125 5000.0 500.0
      vertex 3333.333251953125 5000.0 0.0
    endloop
  endfacet
  facet normal 0.0 1.0 0.0
    outer loop
      vertex 0.0 5000.0 0.0
      vertex 0.0 5000.0 500.0
      vertex 1666.6666259765625 5000.0 500.0
    endloop
  endfacet
  facet normal 0.0 1.0 0.0
    outer loop
      vertex 0.0 5000.0 0.0
      vertex 1666.6666259765625 5000.0 500.0
      vertex 1666.6666259765625 5000.0 0.0
    endloop
  endfacet
  facet normal 0.0 1.0 0.0
    outer loop
      vertex 3333.333251953125 5000.0 0.0
      vertex 3333.333251953125 5000.0 500.0
      vertex 5000.0 5000.0 500.0
    endloop
  endfacet
  facet normal 0.0 1.0 0.0
    outer loop
      vertex 3333.333251953125 5000.0 0.0
      vertex 5000.0 5000.0 500.0
      vertex 5000.0 5000.0 0.0
    endloop
  endfacet
  facet normal -1.0 0.0 0.0
    outer loop
      vertex 0.0 3333.333251953125 0.0
      vertex 0.0 3333.333251953125 500.0
      vertex 0.0 5000.0 500.0
    endloop
  endfacet
  facet normal -1.0 0.0 0.0
    outer loop
      vertex 0.0 3333.333251953125 0.0
      vertex 0.0 5000.0 500.0
      vertex 0.0 5000.0 0.0
    endloop
  endfacet
  facet normal -1.0 0.0 -0.0
    outer loop
      vertex 0.0 3333.333251953125 500.0
      vertex 0.0 3333.333251953125 0.0
      vertex 0.0 1666.6666259765625 0.0
    endloop
  endfacet
  facet normal -1.0 -0.0 0.0
    outer loop
      vertex 0.0 3333.333251953125 500.0
      vertex 0.0 1666.6666259765625 0.0
      vertex 0.0 1666.6666259765625 500.0
    endloop
  endfacet
  facet normal -1.0 0.0 0.0
    outer loop
      vertex 0.0 0.0 0.0
      vertex 0.0 0.0 500.0
      vertex 0.0 1666.6666259765625 500.0
    endloop
  endfacet
  facet normal -1.0 0.0 0.0
    outer loop
      vertex 0.0 0.0 0.0
      vertex 0.0 1666.6666259765625 500.0
      vertex 0.0 1666.6666259765625 0.0
    endloop
  endfacet
  facet normal 0.0 0.0 -1.0
    outer loop
      vertex 0.0 1666.6666259765625 0.0
      vertex 1666.6666259765625 0.0 0.0
      vertex 0.0 0.0 0.0
    endloop
  endfacet
  facet normal 0.0 0.0 0.0
    outer loop
      vertex 0.0 1666.6666259765625 0.0
      vertex 0.0 0.0 0.0
      vertex 0.0 0.0 0.0
    endloop
  endfacet
  facet normal 0.0 0.0 -1.0
    outer loop
      vertex 5000.0 0.0 0.0
      vertex 3333.333251953125 0.0 0.0
      vertex 0.0 1666.6666259765625 0.0
    endloop
  endfacet
  facet normal 0.0 0.0 0.0
    outer loop
      vertex 5000.0 0.0 0.0
      vertex 0.0 1666.6666259765625 0.0
      vertex 0.0 1666.6666259765625 0.0
    endloop
  endfacet
  facet normal 0.0 0.0 -1.0
    outer loop
      vertex 1666.6666259765625 0.0 0.0
      vertex 0.0 1666.6666259765625 0.0
      vertex 3333.333251953125 0.0 0.0
    endloop
  endfacet
  facet normal 0.0 0.0 0.0
    outer loop
      vertex 1666.6666259765625 0.0 0.0
      vertex 3333.333251953125 0.0 0.0
      vertex 3333.333251953125 0.0 0.0
    endloop
  endfacet
  facet normal 0.0 0.0 -1.0
    outer loop
      vertex 10000.0 1666.6666259765625 0.0
      vertex 6666.66650390625 0.0 0.0
      vertex 5000.0 0.0 0.0
    endloop
  endfacet
  facet normal 0.0 0.0 0.0
    outer loop
      vertex 10000.0 1666.6666259765625 0.0
      vertex 5000.0 0.0 0.0
      vertex 5000.0 0.0 0.0
    endloop
  endfacet
  facet normal 0.0 0.0 -1.0
    outer loop
      vertex 10000.0 0.0 0.0
      vertex 8333.3330078125 0.0 0.0
      vertex 10000.0 1666.6666259765625 0.0
    endloop
  endfacet
  facet normal 0.0 0.0 0.0
    outer loop
      vertex 10000.0 0.0 0.0
      vertex 10000.0 1666.6666259765625 0.0
      vertex 10000.0 1666.6666259765625 0.0
    endloop
  endfacet
  facet normal 0.0 0.0 -1.0
    outer loop
      vertex 6666.66650390625 0.0 0.0
      vertex 10000.0 1666.6666259765625 0.0
      vertex 8333.3330078125 0.0 0.0
    endloop
  endfacet
  facet normal 0.0 0.0 0.0
    outer loop
      vertex 6666.66650390625 0.0 0.0
      vertex 8333.3330078125 0.0 0.0
      vertex 8333.3330078125 0.0 0.0
    endloop
  endfacet
  facet normal 0.0 -0.0 -1.0
    outer loop
      vertex 10000.0 3333.333251953125 0.0
      vertex 10000.0 1666.6666259765625 0.0
      vertex 5000.0 0.0 0.0
    endloop
  endfacet
  facet normal 0.0 0.0 0.0
    outer loop
      vertex 10000.0 3333.333251953125 0.0
      vertex 5000.0 0.0 0.0
      vertex 5000.0 0.0 0.0
    endloop
  endfacet
  facet normal 0.0 -0.0 -1.0
    outer loop
      vertex 5000.0 5000.0 0.0
      vertex 5000.0 0.0 0.0
      vertex 0.0 1666.6666259765625 0.0
    endloop
  endfacet
  facet normal 0.0 0.0 -1.0
    outer loop
      vertex 5000.0 5000.0 0.0
      vertex 0.0 1666.6666259765625 0.0
      vertex 0.0 3333.333251953125 0.0
    endloop
  endfacet
  facet normal -0.0 0.0 -1.0
    outer loop
      vertex 1666.6666259765625 5000.0 0.0
      vertex 0.0 3333.333251953125 0.0
      vertex 0.0 5000.0 0.0
    endloop
  endfacet
  facet normal 0.0 0.0 0.0
    outer loop
      vertex 1666.6666259765625 5000.0 0.0
      vertex 0.0 5000.0 0.0
      vertex 0.0 5000.0 0.0
    endloop
  endfacet
  facet normal 0.0 0.0 -1.0
    outer loop
      vertex 0.0 3333.333251953125 0.0
      vertex 1666.6666259765625 5000.0 0.0
      vertex 3333.333251953125 5000.0 0.0
    endloop
  endfacet
  facet normal 0.0 0.0 0.0
    outer loop
      vertex 0.0 3333.333251953125 0.0
      vertex 3333.333251953125 5000.0 0.0
      vertex 3333.333251953125 5000.0 0.0
    endloop
  endfacet
  facet normal -0.0 0.0 -1.0
    outer loop
      vertex 5000.0 5000.0 0.0
      vertex 0.0 3333.333251953125 0.0
      vertex 3333.333251953125 5000.0 0.0
    endloop
  endfacet
  facet normal 0.0 0.0 0.0
    outer loop
      vertex 5000.0 5000.0 0.0
      vertex 3333.333251953125 5000.0 0.0
      vertex 3333.333251953125 5000.0 0.0
    endloop
  endfacet
  facet normal -0.0 -0.0 -1.0
    outer loop
      vertex 6666.66650390625 5000.0 0.0
      vertex 10000.0 3333.333251953125 0.0
      vertex 5000.0 5000.0 0.0
    endloop
  endfacet
  facet normal 0.0 0.0 0.0
    outer loop
      vertex 6666.66650390625 5000.0 0.0
      vertex 5000.0 5000.0 0.0
      vertex 5000.0 5000.0 0.0
    endloop
  endfacet
  facet normal 0.0 0.0 -1.0
    outer loop
      vertex 5000.0 5000.0 0.0
      vertex 10000.0 3333.333251953125 0.0
      vertex 5000.0 0.0 0.0
    endloop
  endfacet
  facet normal 0.0 0.0 0.0
    outer loop
      vertex 5000.0 5000.0 0.0
      vertex 5000.0 0.0 0.0
      vertex 5000.0 0.0 0.0
    endloop
  endfacet
  facet normal 0.0 0.0 -1.0
    outer loop
      vertex 10000.0 3333.333251953125 0.0
      vertex 6666.66650390625 5000.0 0.0
      vertex 8333.3330078125 5000.0 0.0
    endloop
  endfacet
  facet normal 0.0 0.0 0.0
    outer loop
      vertex 10000.0 3333.333251953125 0.0
      vertex 8333.3330078125 5000.0 0.0
      vertex 8333.3330078125 5000.0 0.0
    endloop
  endfacet
  facet normal 0.0 0.0 -1.0
    outer loop
      vertex 10000.0 3333.333251953125 0.0
      vertex 8333.3330078125 5000.0 0.0
      vertex 10000.0 5000.0 0.0
    endloop
  endfacet
  facet normal 0.0 0.0 0.0
    outer loop
      vertex 10000.0 3333.333251953125 0.0
      vertex 10000.0 5000.0 0.0
      vertex 10000.0 5000.0 0.0
    endloop
  endfacet
  facet normal 0.0 0.0 1.0
    outer loop
      vertex 0.0 1666.6666259765625 500.0
      vertex 0.0 0.0 500.0
      vertex 1666.6666259765625 0.0 500.0
    endloop
  endfacet
  facet normal 0.0 0.0 0.0
    outer loop
      vertex 0.0 1666.6666259765625 500.0
      vertex 1666.6666259765625 0.0 500.0
      vertex 1666.6666259765625 0.0 500.0
    endloop
  endfacet
  facet normal 0.0 0.0 1.0
    outer loop
      vertex 0.0 1666.6666259765625 500.0
      vertex 3333.333251953125 0.0 500.0
      vertex 5000.0 0.0 500.0
    endloop
  endfacet
  facet normal 0.0 0.0 0.0
    outer loop
      vertex 0.0 1666.6666259765625 500.0
      vertex 5000.0 0.0 500.0
      vertex 5000.0 0.0 500.0
    endloop
  endfacet
  facet normal 0.0 0.0 1.0
    outer loop
      vertex 0.0 1666.6666259765625 500.0
      vertex 1666.6666259765625 0.0 500.0
      vertex 3333.333251953125 0.0 500.0
    endloop
  endfacet
  facet normal 0.0 0.0 0.0
    outer loop
      vertex 0.0 1666.6666259765625 500.0
      vertex 3333.333251953125 0.0 500.0
      vertex 3333.333251953125 0.0 500.0
    endloop
  endfacet
  facet normal 0.0 0.0 1.0
    outer loop
      vertex 5000.0 5000.0 500.0
      vertex 0.0 3333.333251953125 500.0
      vertex 0.0 1666.6666259765625 500.0
    endloop
  endfacet
  facet normal 0.0 0.0 0.0
    outer loop
      vertex 5000.0 5000.0 500.0
      vertex 0.0 1666.6666259765625 500.0
      vertex 0.0 1666.6666259765625 500.0
    endloop
  endfacet
  facet normal 0.0 0.0 1.0
    outer loop
      vertex 0.0 3333.333251953125 500.0
      vertex 1666.6666259765625 5000.0 500.0
      vertex 0.0 5000.0 500.0
    endloop
  endfacet
  facet normal 0.0 0.0 0.0
    outer loop
      vertex 0.0 3333.333251953125 500.0
      vertex 0.0 5000.0 500.0
      vertex 0.0 5000.0 500.0
    endloop
  endfacet
  facet normal 0.0 0.0 1.0
    outer loop
      vertex 0.0 3333.333251953125 500.0
      vertex 3333.333251953125 5000.0 500.0
      vertex 1666.6666259765625 5000.0 500.0
    endloop
  endfacet
  facet normal 0.0 0.0 0.0
    outer loop
      vertex 0.0 3333.333251953125 500.0
      vertex 1666.6666259765625 5000.0 500.0
      vertex 1666.6666259765625 5000.0 500.0
    endloop
  endfacet
  facet normal -0.0 0.0 1.0
    outer loop
      vertex 3333.333251953125 5000.0 500.0
      vertex 0.0 3333.333251953125 500.0
      vertex 5000.0 5000.0 500.0
    endloop
  endfacet
  facet normal 0.0 0.0 0.0
    outer loop
      vertex 3333.333251953125 5000.0 500.0
      vertex 5000.0 5000.0 500.0
      vertex 5000.0 5000.0 500.0
    endloop
  endfacet
  facet normal 0.0 -0.0 1.0
    outer loop
      vertex 5000.0 0.0 500.0
      vertex 5000.0 5000.0 500.0
      vertex 0.0 1666.6666259765625 500.0
    endloop
  endfacet
  facet normal 0.0 0.0 0.0
    outer loop
      vertex 5000.0 0.0 500.0
      vertex 0.0 1666.6666259765625 500.0
      vertex 0.0 1666.6666259765625 500.0
    endloop
  endfacet
  facet normal 0.0 0.0 1.0
    outer loop
      vertex 10000.0 1666.6666259765625 500.0
      vertex 6666.66650390625 0.0 500.0
      vertex 8333.3330078125 0.0 500.0
    endloop
  endfacet
  facet normal 0.0 0.0 0.0
    outer loop
      vertex 10000.0 1666.6666259765625 500.0
      vertex 8333.3330078125 0.0 500.0
      vertex 8333.3330078125 0.0 500.0
    endloop
  endfacet
  facet normal 0.0 0.0 1.0
    outer loop
      vertex 8333.3330078125 0.0 500.0
      vertex 10000.0 0.0 500.0
      vertex 10000.0 1666.6666259765625 500.0
    endloop
  endfacet
  facet normal 0.0 0.0 0.0
    outer loop
      vertex 8333.3330078125 0.0 500.0
      vertex 10000.0 1666.6666259765625 500.0
      vertex 10000.0 1666.6666259765625 500.0
    endloop
  endfacet
  facet normal 0.0 -0.0 1.0
    outer loop
      vertex 10000.0 1666.6666259765625 500.0
      vertex 10000.0 3333.333251953125 500.0
      vertex 5000.0 0.0 500.0
    endloop
  endfacet
  facet normal 0.0 0.0 0.0
    outer loop
      vertex 10000.0 1666.6666259765625 500.0
      vertex 5000.0 0.0 500.0
      vertex 5000.0 0.0 500.0
    endloop
  endfacet
  facet normal 0.0 0.0 1.0
    outer loop
      vertex 10000.0 3333.333251953125 500.0
      vertex 6666.66650390625 5000.0 500.0
      vertex 5000.0 5000.0 500.0
    endloop
  endfacet
  facet normal 0.0 0.0 0.0
    outer loop
      vertex 10000.0 3333.333251953125 500.0
      vertex 5000.0 5000.0 500.0
      vertex 5000.0 5000.0 500.0
    endloop
  endfacet
  facet normal 0.0 0.0 1.0
    outer loop
      vertex 10000.0 5000.0 500.0
      vertex 8333.3330078125 5000.0 500.0
      vertex 10000.0 3333.333251953125 500.0
    endloop
  endfacet
  facet normal 0.0 0.0 0.0
    outer loop
      vertex 10000.0 5000.0 500.0
      vertex 10000.0 3333.333251953125 500.0
      vertex 10000.0 3333.333251953125 500.0
    endloop
  endfacet
  facet normal -0.0 0.0 1.0
    outer loop
      vertex 6666.66650390625 5000.0 500.0
      vertex 10000.0 3333.333251953125 500.0
      vertex 8333.3330078125 5000.0 500.0
    endloop
  endfacet
  facet normal 0.0 0.0 0.0
    outer loop
      vertex 6666.66650390625 5000.0 500.0
      vertex 8333.3330078125 5000.0 500.0
      vertex 8333.3330078125 5000.0 500.0
    endloop
  endfacet
  facet normal 0.0 0.0 1.0
    outer loop
      vertex 5000.0 5000.0 500.0
      vertex 5000.0 0.0 500.0
      vertex 10000.0 3333.333251953125 500.0
    endloop
  endfacet
  facet normal 0.0 0.0 0.0
    outer loop
      vertex 5000.0 5000.0 500.0
      vertex 10000.0 3333.333251953125 500.0
      vertex 10000.0 3333.333251953125 500.0
    endloop
  endfacet
  facet normal 0.0 -0.0 1.0
    outer loop
      vertex 6666.66650390625 0.0 500.0
      vertex 10000.0 1666.6666259765625 500.0
      vertex 5000.0 0.0 500.0
    endloop
  endfacet
  facet normal 0.0 0.0 0.0
    outer loop
      vertex 6666.66650390625 0.0 500.0
      vertex 5000.0 0.0 500.0
      vertex 5000.0 0.0 500.0
    endloop
  endfacet
endsolid gh-assembler
